# xmcd CD database file
#
# Track frame offsets:
#	150
#	15018
#	32833
#
# Disc length: 695 seconds
#
# Revision: 1
# Processed by: cddbd v1.5.2PL0 Copyright (c) Steve Scherf et al.
# Submitted via: CDex 1.70beta2
#
DISCID=1202b503
DTITLE=pre-school - Spunky Josh
DYEAR=1997
DGENRE=Pop
TTITLE0=Spunky Josh
TTITLE1=ウロトアゼ
TTITLE2=A MORE HILL
EXTD=YEAR: 1997
EXTT0=
EXTT1=
EXTT2=
PLAYORDER=
